<?xml version="1.0" encoding="UTF-8"?>
<!DOCTYPE svg PUBLIC "-//W3C//DTD SVG 1.1//EN" "http://www.w3.org/Graphics/SVG/1.1/DTD/svg11.dtd">
<!-- Creator: CorelDRAW 2021 (64-Bit) -->
<svg xmlns="http://www.w3.org/2000/svg" xml:space="preserve" width="215.9mm" height="355.6mm" version="1.1" style="shape-rendering:geometricPrecision; text-rendering:geometricPrecision; image-rendering:optimizeQuality; fill-rule:evenodd; clip-rule:evenodd"
viewBox="0 0 21590 35560"
 xmlns:xlink="http://www.w3.org/1999/xlink"
 xmlns:xodm="http://www.corel.com/coreldraw/odm/2003">
 <defs>
  <style type="text/css">
   <![CDATA[
    .str0 {stroke:#6C757D;stroke-width:100;stroke-linecap:round;stroke-linejoin:round;stroke-miterlimit:22.9256}
    .fil0 {fill:none}
    .fil1 {fill:#6C757D}
    .fil2 {fill:white}
   ]]>
  </style>
 </defs>
 <g id="Capa_x0020_1">
  <metadata id="CorelCorpID_0Corel-Layer"/>
  <g id="_1192196579280">
   <rect class="fil0 str0" x="12032.16" y="-14245.41" width="1800" height="1792" rx="189.19" ry="189.19"/>
   <polygon class="fil1" points="12180.02,-12601.16 13685,-12601.23 13684.27,-14097.64 12179.32,-14097.46 "/>
   <g>
    <path class="fil2" d="M12273.41 -13745.17l-0.2 811.63c56.76,7.5 157.65,1.06 217.71,0.6 78.34,-0.61 120.15,-5.62 181.07,-39.93 273.14,-153.84 244.9,-795.91 -169.01,-795.91l-209.46 -0.09c-18.78,1.03 -20.19,4.37 -20.11,23.7z"/>
    <path class="fil2" d="M12994.5 -12932.99l152.7 0.52c5.47,-42.65 75.59,-416.51 83.57,-430.85 8.3,10.97 9.31,36.29 11.21,49.36 17.82,122.49 43.36,264.17 57.3,381.36l152.09 0.15 139.74 -626.64 -126.36 0.58c-9.62,2.23 -3.18,-0.43 -8.96,3.65 -9.38,21.44 -28.93,183.67 -34.6,221.42 -5.8,38.61 -23.31,200.94 -37.62,219.08 -13.26,-15.21 -15.83,-79.19 -19.38,-104.48 -7.99,-56.83 -44.05,-350.59 -51.62,-337.45l-9.59 -2.92c-4.32,-0.64 -14.99,-0.43 -19.79,-0.38 -28.66,0.32 -98.41,-3.39 -113.54,3.25 -9.73,25.17 -43.31,270.3 -53.08,332.53 -2.82,17.97 -5.75,37.5 -8.48,55.18 -1.47,9.59 -2.88,19.38 -4.2,28.21 -0.43,2.87 -1.71,11.63 -2.41,13.87l-7.42 11.78c-15.61,-26.94 -44.39,-376.49 -59.87,-444.65l-165.3 0 125.61 626.43z"/>
    <path class="fil1" d="M12428.82 -13475.75l-0.07 412 78.13 0c144.78,0 172.51,-165.96 168.96,-307.53 -1.71,-68.28 -13.13,-142.15 -46.06,-191.03 -51.03,-75.74 -108.15,-76.23 -200.92,-74.91l-0.04 161.47z"/>
   </g>
  </g>
 </g>
</svg>
